# xmcd CD database file
#
# Track frame offsets:
#	150
#	17840
#	35013
#	54190
#	72298
#	106580
#	128868
#	141730
#	161240
#	182145
#	187838
#
# Disc length: 2739 seconds
#
# Revision: 0
# Processed by: cddbd v1.5PL3 Copyright (c) Steve Scherf et al.
# Submitted via: CDex 1.50beta8a
#
DISCID=990ab10b
DTITLE=Les 5-4-3-2-1 - mon cheri "go go"
DYEAR=1900
DGENRE=Japanese Pop
TTITLE0=アン・ドゥ・トロワ
TTITLE1=西暦54321年 第1章
TTITLE2=宇宙でランデヴー
TTITLE3=ラディカル・サンバ
TTITLE4='69はエロな年
TTITLE5=虹の彼方で
TTITLE6=パリ・クルーズ
TTITLE7=ジャングル・ストリップ
TTITLE8=イッツ・ア・ビューテュフル・デイ
TTITLE9=西暦54321年 第2章
TTITLE10=サークル・ゲーム
EXTD=
EXTT0=
EXTT1=
EXTT2=
EXTT3=
EXTT4=
EXTT5=
EXTT6=
EXTT7=
EXTT8=
EXTT9=
EXTT10=
PLAYORDER=
